<mxfile host="app.diagrams.net" modified="2023-02-24T08:59:23.522Z" agent="5.0 (Windows)" etag="uZwh7EarFbam5SM7Rr7w" version="20.8.23" type="github">
  <diagram id="C5RBs43oDa-KdzZeNtuy" name="Page-1">
    <mxGraphModel dx="1235" dy="666" grid="1" gridSize="10" guides="1" tooltips="1" connect="1" arrows="1" fold="1" page="1" pageScale="1" pageWidth="1169" pageHeight="827" math="0" shadow="0">
      <root>
        <mxCell id="WIyWlLk6GJQsqaUBKTNV-0" />
        <mxCell id="WIyWlLk6GJQsqaUBKTNV-1" parent="WIyWlLk6GJQsqaUBKTNV-0" />
        <mxCell id="I8soIdP3lHEQnFpEOx_I-2" value="Airport" style="swimlane;fontStyle=1;align=center;verticalAlign=top;childLayout=stackLayout;horizontal=1;startSize=26;horizontalStack=0;resizeParent=1;resizeParentMax=0;resizeLast=0;collapsible=1;marginBottom=0;rounded=1;" vertex="1" parent="WIyWlLk6GJQsqaUBKTNV-1">
          <mxGeometry x="490" y="80" width="165" height="78" as="geometry" />
        </mxCell>
        <mxCell id="I8soIdP3lHEQnFpEOx_I-3" value="+ UniqeID : İnt&#xa;+ Name    : String" style="text;strokeColor=none;fillColor=none;align=left;verticalAlign=top;spacingLeft=4;spacingRight=4;overflow=hidden;rotatable=0;points=[[0,0.5],[1,0.5]];portConstraint=eastwest;" vertex="1" parent="I8soIdP3lHEQnFpEOx_I-2">
          <mxGeometry y="26" width="165" height="44" as="geometry" />
        </mxCell>
        <mxCell id="I8soIdP3lHEQnFpEOx_I-4" value="" style="line;strokeWidth=1;fillColor=none;align=left;verticalAlign=middle;spacingTop=-1;spacingLeft=3;spacingRight=3;rotatable=0;labelPosition=right;points=[];portConstraint=eastwest;strokeColor=inherit;rounded=1;" vertex="1" parent="I8soIdP3lHEQnFpEOx_I-2">
          <mxGeometry y="70" width="165" height="8" as="geometry" />
        </mxCell>
        <mxCell id="I8soIdP3lHEQnFpEOx_I-6" value="Airway Companies" style="swimlane;fontStyle=1;align=center;verticalAlign=top;childLayout=stackLayout;horizontal=1;startSize=26;horizontalStack=0;resizeParent=1;resizeParentMax=0;resizeLast=0;collapsible=1;marginBottom=0;rounded=1;" vertex="1" parent="WIyWlLk6GJQsqaUBKTNV-1">
          <mxGeometry x="495" y="280" width="165" height="104" as="geometry" />
        </mxCell>
        <mxCell id="I8soIdP3lHEQnFpEOx_I-7" value="+ UniqeID : İnt&#xa;+ Name    : String" style="text;strokeColor=none;fillColor=none;align=left;verticalAlign=top;spacingLeft=4;spacingRight=4;overflow=hidden;rotatable=0;points=[[0,0.5],[1,0.5]];portConstraint=eastwest;" vertex="1" parent="I8soIdP3lHEQnFpEOx_I-6">
          <mxGeometry y="26" width="165" height="44" as="geometry" />
        </mxCell>
        <mxCell id="I8soIdP3lHEQnFpEOx_I-8" value="" style="line;strokeWidth=1;fillColor=none;align=left;verticalAlign=middle;spacingTop=-1;spacingLeft=3;spacingRight=3;rotatable=0;labelPosition=right;points=[];portConstraint=eastwest;strokeColor=inherit;rounded=1;" vertex="1" parent="I8soIdP3lHEQnFpEOx_I-6">
          <mxGeometry y="70" width="165" height="8" as="geometry" />
        </mxCell>
        <mxCell id="I8soIdP3lHEQnFpEOx_I-9" value="+ method(type): type" style="text;strokeColor=none;fillColor=none;align=left;verticalAlign=top;spacingLeft=4;spacingRight=4;overflow=hidden;rotatable=0;points=[[0,0.5],[1,0.5]];portConstraint=eastwest;" vertex="1" parent="I8soIdP3lHEQnFpEOx_I-6">
          <mxGeometry y="78" width="165" height="26" as="geometry" />
        </mxCell>
        <mxCell id="I8soIdP3lHEQnFpEOx_I-28" value="" style="edgeStyle=orthogonalEdgeStyle;rounded=1;orthogonalLoop=1;jettySize=auto;html=1;" edge="1" parent="WIyWlLk6GJQsqaUBKTNV-1" source="I8soIdP3lHEQnFpEOx_I-10" target="I8soIdP3lHEQnFpEOx_I-9">
          <mxGeometry relative="1" as="geometry">
            <Array as="points">
              <mxPoint x="575" y="442" />
              <mxPoint x="580" y="442" />
            </Array>
          </mxGeometry>
        </mxCell>
        <mxCell id="I8soIdP3lHEQnFpEOx_I-10" value="Pilots" style="swimlane;fontStyle=1;align=center;verticalAlign=top;childLayout=stackLayout;horizontal=1;startSize=26;horizontalStack=0;resizeParent=1;resizeParentMax=0;resizeLast=0;collapsible=1;marginBottom=0;rounded=1;" vertex="1" parent="WIyWlLk6GJQsqaUBKTNV-1">
          <mxGeometry x="490" y="500" width="170" height="118" as="geometry" />
        </mxCell>
        <mxCell id="I8soIdP3lHEQnFpEOx_I-11" value="+ UniqeID : İnt&#xa;+ Name    : String" style="text;strokeColor=none;fillColor=none;align=left;verticalAlign=top;spacingLeft=4;spacingRight=4;overflow=hidden;rotatable=0;points=[[0,0.5],[1,0.5]];portConstraint=eastwest;" vertex="1" parent="I8soIdP3lHEQnFpEOx_I-10">
          <mxGeometry y="26" width="170" height="84" as="geometry" />
        </mxCell>
        <mxCell id="I8soIdP3lHEQnFpEOx_I-12" value="" style="line;strokeWidth=1;fillColor=none;align=left;verticalAlign=middle;spacingTop=-1;spacingLeft=3;spacingRight=3;rotatable=0;labelPosition=right;points=[];portConstraint=eastwest;strokeColor=inherit;rounded=1;" vertex="1" parent="I8soIdP3lHEQnFpEOx_I-10">
          <mxGeometry y="110" width="170" height="8" as="geometry" />
        </mxCell>
        <mxCell id="I8soIdP3lHEQnFpEOx_I-27" value="" style="edgeStyle=orthogonalEdgeStyle;rounded=1;orthogonalLoop=1;jettySize=auto;html=1;" edge="1" parent="WIyWlLk6GJQsqaUBKTNV-1" source="I8soIdP3lHEQnFpEOx_I-14" target="I8soIdP3lHEQnFpEOx_I-11">
          <mxGeometry relative="1" as="geometry" />
        </mxCell>
        <mxCell id="I8soIdP3lHEQnFpEOx_I-14" value="Co-Pilot" style="swimlane;fontStyle=1;align=center;verticalAlign=top;childLayout=stackLayout;horizontal=1;startSize=26;horizontalStack=0;resizeParent=1;resizeParentMax=0;resizeLast=0;collapsible=1;marginBottom=0;rounded=1;" vertex="1" parent="WIyWlLk6GJQsqaUBKTNV-1">
          <mxGeometry x="710" y="500" width="165" height="78" as="geometry" />
        </mxCell>
        <mxCell id="I8soIdP3lHEQnFpEOx_I-15" value="+ UniqeID : İnt&#xa;+ Name    : String" style="text;strokeColor=none;fillColor=none;align=left;verticalAlign=top;spacingLeft=4;spacingRight=4;overflow=hidden;rotatable=0;points=[[0,0.5],[1,0.5]];portConstraint=eastwest;" vertex="1" parent="I8soIdP3lHEQnFpEOx_I-14">
          <mxGeometry y="26" width="165" height="44" as="geometry" />
        </mxCell>
        <mxCell id="I8soIdP3lHEQnFpEOx_I-16" value="" style="line;strokeWidth=1;fillColor=none;align=left;verticalAlign=middle;spacingTop=-1;spacingLeft=3;spacingRight=3;rotatable=0;labelPosition=right;points=[];portConstraint=eastwest;strokeColor=inherit;rounded=1;" vertex="1" parent="I8soIdP3lHEQnFpEOx_I-14">
          <mxGeometry y="70" width="165" height="8" as="geometry" />
        </mxCell>
        <mxCell id="I8soIdP3lHEQnFpEOx_I-29" style="edgeStyle=orthogonalEdgeStyle;rounded=1;orthogonalLoop=1;jettySize=auto;html=1;" edge="1" parent="WIyWlLk6GJQsqaUBKTNV-1" source="I8soIdP3lHEQnFpEOx_I-18" target="I8soIdP3lHEQnFpEOx_I-6">
          <mxGeometry relative="1" as="geometry">
            <Array as="points">
              <mxPoint x="355" y="440" />
              <mxPoint x="580" y="440" />
            </Array>
          </mxGeometry>
        </mxCell>
        <mxCell id="I8soIdP3lHEQnFpEOx_I-18" value="Ailr Planes" style="swimlane;fontStyle=1;align=center;verticalAlign=top;childLayout=stackLayout;horizontal=1;startSize=26;horizontalStack=0;resizeParent=1;resizeParentMax=0;resizeLast=0;collapsible=1;marginBottom=0;rounded=1;" vertex="1" parent="WIyWlLk6GJQsqaUBKTNV-1">
          <mxGeometry x="270" y="500" width="170" height="118" as="geometry" />
        </mxCell>
        <mxCell id="I8soIdP3lHEQnFpEOx_I-19" value="+ UniqeID : İnt&#xa;+ Name    : String&#xa;+ Status   : Bool&#xa;+ Type      : String&#xa;" style="text;strokeColor=none;fillColor=none;align=left;verticalAlign=top;spacingLeft=4;spacingRight=4;overflow=hidden;rotatable=0;points=[[0,0.5],[1,0.5]];portConstraint=eastwest;" vertex="1" parent="I8soIdP3lHEQnFpEOx_I-18">
          <mxGeometry y="26" width="170" height="84" as="geometry" />
        </mxCell>
        <mxCell id="I8soIdP3lHEQnFpEOx_I-20" value="" style="line;strokeWidth=1;fillColor=none;align=left;verticalAlign=middle;spacingTop=-1;spacingLeft=3;spacingRight=3;rotatable=0;labelPosition=right;points=[];portConstraint=eastwest;strokeColor=inherit;rounded=1;" vertex="1" parent="I8soIdP3lHEQnFpEOx_I-18">
          <mxGeometry y="110" width="170" height="8" as="geometry" />
        </mxCell>
        <mxCell id="I8soIdP3lHEQnFpEOx_I-22" value="Flights" style="swimlane;fontStyle=1;align=center;verticalAlign=top;childLayout=stackLayout;horizontal=1;startSize=26;horizontalStack=0;resizeParent=1;resizeParentMax=0;resizeLast=0;collapsible=1;marginBottom=0;rounded=1;" vertex="1" parent="WIyWlLk6GJQsqaUBKTNV-1">
          <mxGeometry x="860" y="240" width="170" height="128" as="geometry" />
        </mxCell>
        <mxCell id="I8soIdP3lHEQnFpEOx_I-23" value="+ Flight ID : İnt&#xa;+ Departure Time    : DateTime&#xa;+ Landing Time        : DateTime&#xa;+ Departure Airport  : name&#xa;+ Landing   Airport  : name&#xa;" style="text;strokeColor=none;fillColor=none;align=left;verticalAlign=top;spacingLeft=4;spacingRight=4;overflow=hidden;rotatable=0;points=[[0,0.5],[1,0.5]];portConstraint=eastwest;" vertex="1" parent="I8soIdP3lHEQnFpEOx_I-22">
          <mxGeometry y="26" width="170" height="94" as="geometry" />
        </mxCell>
        <mxCell id="I8soIdP3lHEQnFpEOx_I-24" value="" style="line;strokeWidth=1;fillColor=none;align=left;verticalAlign=middle;spacingTop=-1;spacingLeft=3;spacingRight=3;rotatable=0;labelPosition=right;points=[];portConstraint=eastwest;strokeColor=inherit;rounded=1;" vertex="1" parent="I8soIdP3lHEQnFpEOx_I-22">
          <mxGeometry y="120" width="170" height="8" as="geometry" />
        </mxCell>
        <mxCell id="I8soIdP3lHEQnFpEOx_I-30" style="edgeStyle=orthogonalEdgeStyle;rounded=1;orthogonalLoop=1;jettySize=auto;html=1;" edge="1" parent="WIyWlLk6GJQsqaUBKTNV-1" source="I8soIdP3lHEQnFpEOx_I-23" target="I8soIdP3lHEQnFpEOx_I-2">
          <mxGeometry relative="1" as="geometry">
            <Array as="points">
              <mxPoint x="945" y="140" />
            </Array>
          </mxGeometry>
        </mxCell>
        <mxCell id="I8soIdP3lHEQnFpEOx_I-31" style="edgeStyle=orthogonalEdgeStyle;rounded=1;orthogonalLoop=1;jettySize=auto;html=1;entryX=1;entryY=0.5;entryDx=0;entryDy=0;" edge="1" parent="WIyWlLk6GJQsqaUBKTNV-1" source="I8soIdP3lHEQnFpEOx_I-23" target="I8soIdP3lHEQnFpEOx_I-7">
          <mxGeometry relative="1" as="geometry" />
        </mxCell>
        <mxCell id="I8soIdP3lHEQnFpEOx_I-33" style="edgeStyle=orthogonalEdgeStyle;rounded=1;orthogonalLoop=1;jettySize=auto;html=1;" edge="1" parent="WIyWlLk6GJQsqaUBKTNV-1" source="I8soIdP3lHEQnFpEOx_I-11" target="I8soIdP3lHEQnFpEOx_I-19">
          <mxGeometry relative="1" as="geometry" />
        </mxCell>
      </root>
    </mxGraphModel>
  </diagram>
</mxfile>
